<svg width="60" height="83" viewBox="0 0 119 83" fill="none" xmlns="http://www.w3.org/2000/svg">
<rect width="60" height="83" fill="transparent"/>
<rect id="Rectangle 1" x="16" width="75" height="15" fill="black"/>
<path id="J" d="M33.4403 9.27273H48.6392V59.983C48.6392 64.6705 47.5857 68.7424 45.4787 72.1989C43.3954 75.6553 40.4953 78.3187 36.7784 80.1889C33.0616 82.0592 28.741 82.9943 23.8168 82.9943C19.437 82.9943 15.4598 82.2249 11.8849 80.6861C8.33381 79.1236 5.51657 76.7562 3.43324 73.5838C1.34991 70.3878 0.320076 66.375 0.34375 61.5455H15.6491C15.6965 63.4631 16.0871 65.1084 16.821 66.4815C17.5786 67.831 18.6084 68.8726 19.9105 69.6065C21.2363 70.3168 22.7988 70.6719 24.598 70.6719C26.492 70.6719 28.09 70.2694 29.392 69.4645C30.7178 68.6359 31.724 67.4285 32.4105 65.8423C33.0971 64.2562 33.4403 62.303 33.4403 59.983V9.27273Z" fill="black"/>
<path id="V" d="M65.4602 9.27273L83.0384 64.5284H83.7131L101.327 9.27273H118.372L93.3011 82H73.4858L48.3793 9.27273H65.4602Z" fill="black"/>
</svg>
