<svg xmlns="http://www.w3.org/2000/svg" version="1.1" xmlns:xlink="http://www.w3.org/1999/xlink" xmlns:svgjs="http://svgjs.com/svgjs" width="1200" height="200" preserveAspectRatio="none" viewBox="0 0 1200 200"><g mask="url(&quot;#SvgjsMask1114&quot;)" fill="none"><path d="M 0,1 C 60,18.8 180,83.8 300,90 C 420,96.2 480,30.8 600,32 C 720,33.2 780,94.4 900,96 C 1020,97.6 1140,51.2 1200,40L1200 200L0 200z" fill="rgba(24, 74, 126, 0.19)"></path><path d="M 0,121 C 40,134.8 120,189.8 200,190 C 280,190.2 320,122.4 400,122 C 480,121.6 520,189.6 600,188 C 680,186.4 720,117.8 800,114 C 880,110.2 920,164.2 1000,169 C 1080,173.8 1160,144.2 1200,138L1200 200L0 200z" fill="rgba(34, 100, 171, 0.38)"></path></g><defs><mask id="SvgjsMask1114"><rect width="1200" height="200" fill="#ffffff"></rect></mask></defs></svg>